<svg xmlns="http://www.w3.org/2000/svg" viewBox="0 0 263 23">
    <g fill="#777878" fill-rule="evenodd">
        <path d="M0 22v-.62c.816-.094 1.427-.406 1.835-.933.407-.534 1.11-2.001 2.101-4.417L10.543 0h.684l7.898 18.536c.531 1.218.955 1.965 1.272 2.258.32.286.852.482 1.603.587V22h-8.1v-.62c.926-.085 1.524-.186 1.794-.306.266-.122.4-.417.4-.89 0-.157-.048-.436-.156-.837a9.492 9.492 0 0 0-.432-1.26l-1.27-3.128H5.852c-.831 2.13-1.327 3.426-1.486 3.894-.163.466-.243.837-.243 1.11 0 .55.218.927.652 1.136.272.124.78.218 1.53.282V22H0zm13.704-8.353L10.048 4.62l-3.663 9.028h7.319zM21 2.919v-.532a30.684 30.684 0 0 0 3.25-.893C25.207 1.163 25.726 1 25.8 1a.561.561 0 0 1 .032.187v9.453c.276-.493.684-.963 1.23-1.408.968-.773 2.085-1.159 3.343-1.159 1.546 0 2.864.64 3.957 1.93C35.454 11.283 36 12.955 36 15.007c0 2.195-.709 4.077-2.132 5.643C32.448 22.22 30.578 23 28.263 23c-1.17 0-2.317-.23-3.444-.685-1.126-.457-1.69-.909-1.69-1.369V4.52c0-.608-.085-1.04-.252-1.293-.168-.258-.556-.387-1.168-.387L21 2.919zm6.019 18.664c.721.232 1.353.35 1.896.35 1.462 0 2.546-.545 3.252-1.632.704-1.09 1.059-2.405 1.059-3.952 0-1.546-.33-2.971-.988-4.282-.662-1.316-1.725-1.967-3.199-1.967-.736 0-1.465.22-2.177.674-.711.45-1.064 1.02-1.064 1.72v7.928c.093.545.503.924 1.22 1.16zM48.672 9.523c1.116 1.016 1.676 2.455 1.676 4.322h-9.997c.104 2.404.656 4.158 1.654 5.26 1 1.099 2.18 1.65 3.547 1.65 1.105 0 2.039-.285 2.792-.859.76-.568 1.455-1.377 2.1-2.429l.556.189c-.433 1.32-1.246 2.537-2.431 3.661C47.383 22.44 45.93 23 44.212 23c-1.98 0-3.513-.737-4.595-2.211-1.08-1.48-1.617-3.177-1.617-5.1 0-2.09.625-3.895 1.874-5.412C41.13 8.757 42.762 8 44.771 8c1.484 0 2.784.509 3.901 1.523m-7.535 1.193c-.336.568-.576 1.274-.721 2.132h6.636c-.12-1.044-.319-1.823-.599-2.329-.514-.92-1.374-1.378-2.578-1.378-1.197 0-2.11.524-2.738 1.575M52 21.494c.908-.087 1.507-.261 1.806-.52.294-.258.443-.81.443-1.66V12.12c0-1.06-.092-1.812-.271-2.261-.18-.457-.508-.683-.987-.683-.097 0-.228.015-.387.042-.16.026-.33.06-.502.105v-.509c.56-.211 1.137-.43 1.727-.655.59-.22 1.005-.38 1.229-.475A30.906 30.906 0 0 0 56.584 7c.069 0 .112.025.125.08.016.054.021.172.021.352v2.594c.621-.94 1.22-1.67 1.799-2.202.575-.527 1.176-.788 1.797-.788.496 0 .898.158 1.208.481.311.321.466.727.466 1.211 0 .436-.119.801-.357 1.096-.237.292-.537.444-.892.444-.369 0-.74-.186-1.113-.557-.373-.37-.667-.556-.88-.556-.34 0-.757.3-1.252.896-.495.6-.741 1.214-.741 1.852v7.155c0 .924.195 1.568.59 1.927.39.358 1.046.529 1.96.509V22H52v-.506zM74.22 8.002c.91.669 1.364 1.4 1.364 2.196 0 .343-.115.66-.345.953-.228.3-.588.445-1.068.445a1.31 1.31 0 0 1-.924-.372c-.269-.25-.462-.616-.583-1.093l-.182-.748c-.13-.55-.357-.938-.679-1.168-.331-.218-.766-.326-1.308-.326-1.147 0-2.111.518-2.898 1.558-.792 1.033-1.186 2.412-1.186 4.126 0 1.573.437 2.986 1.304 4.238.87 1.244 2.038 1.874 3.514 1.874 1.043 0 1.97-.358 2.784-1.066.46-.403.983-1.055 1.565-1.941l.422.27c-.572 1.243-1.176 2.232-1.812 2.96C72.974 21.3 71.57 22 69.968 22c-1.567 0-2.954-.64-4.16-1.917C64.6 18.803 64 17.068 64 14.875c0-2.152.657-4.004 1.975-5.553C67.295 7.775 68.957 7 70.966 7c1.26 0 2.344.335 3.255 1.002M77 21.494c.906-.087 1.51-.261 1.803-.52.298-.258.445-.81.445-1.66V12.12c0-1.06-.09-1.812-.27-2.261-.184-.457-.51-.683-.987-.683-.097 0-.228.015-.387.042-.16.026-.329.06-.505.105v-.509c.565-.211 1.143-.43 1.733-.655.59-.22 1-.38 1.227-.475.49-.205 1-.433 1.525-.685.067 0 .11.025.125.08.016.054.021.172.021.352v2.594c.621-.94 1.22-1.67 1.798-2.202.578-.527 1.176-.788 1.798-.788.495 0 .898.158 1.208.481.308.321.466.727.466 1.211 0 .436-.119.801-.357 1.096-.238.292-.535.444-.892.444-.369 0-.74-.186-1.113-.557-.375-.37-.667-.556-.882-.556-.337 0-.755.3-1.248.896-.497.6-.745 1.214-.745 1.852v7.155c0 .924.198 1.568.59 1.927.394.358 1.048.529 1.963.509V22H77v-.506zM89.946 9.126C91.245 7.708 92.916 7 94.953 7c2.031 0 3.712.67 5.047 2.012 1.335 1.341 2 3.127 2 5.354 0 2.055-.647 3.839-1.938 5.355C98.77 21.24 97.097 22 95.047 22c-1.968 0-3.637-.73-5.002-2.185C88.683 18.361 88 16.533 88 14.336c0-2.052.648-3.789 1.946-5.21m2.452-.434c-1.033.939-1.549 2.567-1.549 4.876 0 1.843.414 3.559 1.244 5.156.831 1.589 1.983 2.393 3.455 2.393 1.155 0 2.045-.535 2.667-1.604.624-1.063.936-2.462.936-4.188 0-1.792-.399-3.482-1.19-5.065-.794-1.583-1.945-2.374-3.447-2.374-.817 0-1.52.27-2.116.806M103 21.562c.802-.08 1.34-.216 1.606-.417.41-.31.617-.93.617-1.852v-8.27c0-.8-.1-1.32-.3-1.566-.199-.247-.53-.37-.992-.37-.216 0-.374.012-.483.03-.11.022-.232.061-.377.116v-.549l1.115-.384a68.005 68.005 0 0 0 1.978-.756c.919-.364 1.406-.544 1.457-.544.052 0 .083.025.092.078.01.055.016.158.016.307v2.167c1.016-.963 1.892-1.628 2.631-1.998A5.016 5.016 0 0 1 112.638 7c1.056 0 1.899.375 2.522 1.12.329.41.599.961.817 1.656.765-.804 1.426-1.394 1.994-1.783.98-.663 1.978-.993 2.999-.993 1.659 0 2.768.696 3.321 2.095.323.787.483 2.035.483 3.741v6.64c0 .758.161 1.275.482 1.545.323.277.902.455 1.744.541V22h-6.955v-.438c.892-.086 1.48-.274 1.763-.568.282-.289.426-.882.426-1.773v-6.904c0-1.034-.109-1.797-.326-2.286-.382-.878-1.127-1.31-2.238-1.31-.673 0-1.338.23-1.996.684-.381.27-.849.698-1.406 1.287v8.2c0 .855.145 1.51.436 1.954.296.446.911.685 1.859.716V22h-7.06v-.438c.975-.128 1.594-.366 1.859-.722.27-.357.401-1.255.401-2.682v-4.479c0-1.647-.102-2.773-.307-3.39-.338-1.048-1.052-1.569-2.15-1.569-.623 0-1.237.178-1.838.537a5.66 5.66 0 0 0-1.598 1.404v8.815c0 .782.138 1.323.409 1.62.27.302.866.45 1.778.466V22H103v-.438zM127 1.919v-.532a30.51 30.51 0 0 0 3.246-.893c.964-.331 1.48-.494 1.556-.494.019.062.03.123.03.187V9.64c.275-.493.684-.963 1.23-1.408.966-.773 2.078-1.159 3.342-1.159 1.544 0 2.864.64 3.956 1.93 1.093 1.281 1.64 2.953 1.64 5.005 0 2.195-.71 4.077-2.133 5.643-1.422 1.568-3.29 2.349-5.607 2.349a9.16 9.16 0 0 1-3.444-.685c-1.127-.457-1.688-.909-1.688-1.369V3.52c0-.608-.088-1.04-.25-1.293-.17-.258-.557-.387-1.17-.387l-.708.079zm6.018 18.664c.721.232 1.352.35 1.896.35 1.462 0 2.546-.545 3.252-1.632.707-1.09 1.057-2.405 1.057-3.952 0-1.546-.33-2.971-.988-4.282-.657-1.316-1.723-1.967-3.193-1.967-.745 0-1.47.22-2.183.674-.708.45-1.064 1.02-1.064 1.72v7.928c.095.545.502.924 1.223 1.16zM143 21.57c1.026-.109 1.671-.298 1.94-.578.267-.279.403-1.036.403-2.265v-7.53c0-.706-.043-1.19-.13-1.46-.143-.44-.445-.658-.902-.658-.109 0-.213.009-.312.033-.1.016-.388.1-.868.251v-.432l.616-.222c1.67-.597 2.838-1.052 3.497-1.356.266-.124.439-.187.512-.187.023.072.03.152.03.237V18.72c0 1.204.134 1.956.402 2.264.268.307.87.5 1.812.585V22h-7v-.43zM145.248.485A1.377 1.377 0 0 1 146.317 0c.413 0 .767.159 1.064.479.292.318.437.704.437 1.166 0 .448-.145.834-.437 1.15-.297.321-.651.483-1.064.483-.424 0-.78-.162-1.069-.483a1.652 1.652 0 0 1-.434-1.15c0-.448.146-.834.434-1.159zM162.675 8.523c1.118 1.016 1.675 2.455 1.675 4.322h-9.994c.107 2.404.658 4.158 1.654 5.26 1 1.099 2.183 1.65 3.55 1.65 1.1 0 2.032-.285 2.792-.859.755-.568 1.453-1.377 2.097-2.429l.551.189c-.429 1.32-1.24 2.537-2.425 3.661-1.188 1.123-2.64 1.683-4.357 1.683-1.983 0-3.516-.737-4.594-2.211-1.08-1.48-1.624-3.177-1.624-5.1 0-2.09.627-3.895 1.884-5.412C155.13 7.757 156.766 7 158.776 7c1.486 0 2.785.509 3.9 1.523m-7.534 1.193c-.336.568-.579 1.274-.723 2.132h6.637c-.116-1.044-.316-1.823-.599-2.329-.514-.92-1.376-1.378-2.578-1.378-1.197 0-2.11.524-2.737 1.575M180.052 9.542c-.131-.28-.284-.667-.456-1.155-.173-.49-.295-.884-.365-1.186-.081-.328-.147-.667-.199-1.004a6.718 6.718 0 0 1-.073-.99c0-1.498.442-2.737 1.327-3.728.89-.985 2.011-1.479 3.372-1.479 1.24 0 2.257.348 3.055 1.045.796.696 1.197 1.628 1.197 2.807 0 1.375-.509 2.493-1.524 3.367a13.44 13.44 0 0 1-3.265 2.104c.893 1.668 1.546 2.845 1.967 3.535.42.682 1.133 1.693 2.137 3.033 1.072-1.344 1.815-2.503 2.229-3.462.409-.963.616-1.733.616-2.305 0-.587-.207-.988-.616-1.21-.26-.132-.72-.229-1.364-.277v-.643h6.703v.643c-.68.083-1.187.21-1.52.372-.545.285-1.015.79-1.397 1.519l-.79 1.49c-.57 1.06-1.042 1.877-1.422 2.442a58.107 58.107 0 0 1-1.712 2.335c.407.484.868.98 1.384 1.482 1.126.984 2.248 1.483 3.373 1.483.67 0 1.237-.17 1.703-.503.28-.211.661-.608 1.138-1.2l.45.374c-.062.244-.274.63-.639 1.154-.366.525-.713.94-1.047 1.233a4.57 4.57 0 0 1-1.84.994 4.207 4.207 0 0 1-1.213.188c-.982 0-1.954-.311-2.915-.93-.575-.37-1.346-1.013-2.31-1.938-.904.839-1.82 1.481-2.744 1.92-1.208.606-2.54.912-3.99.912-1.613 0-2.898-.445-3.86-1.33-.96-.884-1.442-2.086-1.442-3.62 0-1.434.427-2.697 1.282-3.79.857-1.088 2.054-2.083 3.599-2.985l1.17-.697zm2.873 10.208c.811-.312 1.585-.808 2.324-1.473-.954-1.254-1.695-2.303-2.228-3.16-.531-.853-1.364-2.341-2.501-4.463-1.038.625-1.837 1.251-2.39 1.876a4.922 4.922 0 0 0-1.273 3.36c0 1.172.374 2.185 1.123 3.042.75.858 1.71 1.29 2.882 1.29.568 0 1.256-.156 2.063-.472zm1.95-13.033c.896-.898 1.346-1.887 1.346-2.968 0-.813-.226-1.47-.687-1.966-.453-.503-1.034-.755-1.74-.755-.761 0-1.351.257-1.768.767-.418.512-.624 1.185-.624 2.031 0 .656.115 1.369.345 2.131.23.764.532 1.556.905 2.367.986-.571 1.724-1.108 2.223-1.607zM204 21.399c1.293-.104 2.097-.331 2.408-.693.312-.351.467-1.2.467-2.542V4.45c0-1.15-.175-1.888-.52-2.224-.348-.331-1.135-.545-2.355-.625V1h9.066v.601c-1.245.064-2.049.27-2.409.622-.368.35-.548 1.087-.548 2.227v6.494c1.969-1.674 3.575-3.099 4.826-4.272 2.235-2.1 3.36-3.448 3.36-4.042 0-.42-.194-.696-.575-.828-.377-.131-.918-.201-1.614-.201V1h8.368v.601c-1.016.098-1.823.298-2.411.586-.585.292-1.404.93-2.442 1.913l-6.235 5.71 7.603 8.138c1.384 1.459 2.318 2.378 2.817 2.738.501.363 1.23.6 2.194.713V22h-9.743v-.601c.878-.03 1.47-.1 1.788-.212.31-.106.465-.322.465-.642 0-.177-.102-.445-.304-.808-.2-.36-.52-.781-.954-1.258l-6.151-6.576-.992.909v5.723c0 1.178.18 1.921.539 2.237.357.315 1.137.523 2.343.627V22H204v-.601z"/>
        <path d="M235.672 8.523c1.12 1.016 1.678 2.455 1.678 4.322h-9.996c.107 2.404.658 4.158 1.657 5.26 1 1.099 2.18 1.65 3.546 1.65 1.105 0 2.037-.285 2.789-.859.763-.568 1.46-1.377 2.1-2.429l.554.189c-.43 1.32-1.241 2.537-2.428 3.661-1.186 1.123-2.636 1.683-4.355 1.683-1.984 0-3.512-.737-4.595-2.211-1.079-1.48-1.622-3.177-1.622-5.1 0-2.09.63-3.895 1.882-5.412C228.135 7.757 229.765 7 231.775 7c1.485 0 2.785.509 3.897 1.523m-7.53 1.193c-.336.568-.578 1.274-.722 2.132h6.634c-.117-1.044-.316-1.823-.596-2.329-.516-.92-1.375-1.378-2.58-1.378-1.198 0-2.106.524-2.736 1.575M239.108 21.565c.726-.094 1.233-.28 1.523-.563.29-.277.435-.905.435-1.87v-8.1c0-.677-.06-1.148-.186-1.427-.198-.4-.606-.596-1.22-.596-.09 0-.193.001-.29.01-.097.015-.22.029-.37.052v-.546c.43-.132 1.445-.458 3.042-.994l1.47-.495c.074 0 .118.023.133.077.015.05.025.125.025.218v2.311c.953-.906 1.699-1.527 2.24-1.863.81-.52 1.65-.779 2.52-.779a3.23 3.23 0 0 1 1.933.623c1.119.808 1.677 2.246 1.677 4.315v7.45c0 .761.148 1.311.45 1.65.303.341.807.512 1.51.527V22h-6.664v-.435c.757-.107 1.283-.323 1.58-.647.302-.325.454-1.026.454-2.113v-6.814c0-.913-.168-1.672-.496-2.274-.334-.601-.947-.9-1.834-.9-.613 0-1.23.214-1.86.636-.355.244-.809.647-1.367 1.21v8.94c0 .765.164 1.278.496 1.538.33.261.854.401 1.567.424V22h-6.768v-.435zM262.23 7.156v1.082h-2.98l-.031 9.089c0 .796.063 1.403.193 1.812.236.724.701 1.09 1.388 1.09.355 0 .666-.094.925-.268.263-.178.562-.462.894-.851l.381.347-.325.484c-.506.748-1.042 1.284-1.61 1.588-.567.312-1.116.471-1.641.471-1.157 0-1.94-.556-2.35-1.667-.22-.6-.334-1.433-.334-2.501V8.238h-1.594a.494.494 0 0 1-.112-.09.2.2 0 0 1-.034-.124.37.37 0 0 1 .064-.232c.045-.054.184-.182.42-.386.668-.596 1.149-1.08 1.442-1.451.3-.377.995-1.362 2.091-2.955.128 0 .202.008.23.034.025.015.035.097.035.233v3.889h2.948z"/>
    </g>
</svg>
