<svg width="112" height="22" viewBox="0 0 112 22" fill="none" xmlns="http://www.w3.org/2000/svg">
  <g clip-path="url(#clip0_933_44692)">
    <path d="M.12 2.5C.12 1.43.97.6 2.02.6h7.6v7.6a1.9 1.9 0 0 1-1.9 1.9H.12V2.5Z" fill="url(#paint0_linear_933_44692)"></path>
    <path d="M6.81 4.72c.48.28.48.97 0 1.25L4.44 7.35a.72.72 0 0 1-1.08-.62V3.96c0-.56.6-.9 1.08-.62l2.37 1.38Z" fill="#FAFAFC"></path>
    <path d="M11.51.6h7.6c1.05 0 1.9.84 1.9 1.9v7.6h-7.6a1.9 1.9 0 0 1-1.9-1.9V.6Z" fill="url(#paint1_linear_933_44692)"></path>
    <path d="M17.3 3.4c-.55 0-.92.4-1.03.6-.12-.2-.49-.6-1.04-.6-.7 0-1.24.6-1.24 1.33 0 .72.65 1.35 1.08 1.7l.2.16.69.58c.18.16.45.16.63 0l.85-.73.02-.01c.43-.35 1.07-.98 1.07-1.7C18.53 4 18 3.4 17.3 3.4Z" fill="#FAFAFC"></path>
    <path d="M.12 12h7.6c1.04 0 1.9.84 1.9 1.9v7.6h-7.6a1.9 1.9 0 0 1-1.9-1.9V12Z" fill="url(#paint2_linear_933_44692)"></path>
    <path fill-rule="evenodd" clip-rule="evenodd" d="M5.4 15.05a.57.57 0 1 0-1.16 0v1.07H3.18a.58.58 0 0 0 0 1.15h1.06v1.16a.57.57 0 1 0 1.15 0v-1.16h1.16a.58.58 0 0 0 0-1.15H5.4v-1.07Z" fill="#FAFAFC"></path>
    <path d="M11.51 13.9c0-1.06.86-1.9 1.9-1.9h7.6v7.6a1.9 1.9 0 0 1-1.9 1.9h-7.6v-7.6Z" fill="url(#paint3_linear_933_44692)"></path>
    <path d="M16.26 19.77a.55.55 0 0 1-.55-.55v-.29c-.24-.1-.46-.26-.74-.62a.56.56 0 0 1 .09-.78.52.52 0 0 1 .75.07c.19.22.3.26.43.27.09 0 .2-.02.25-.06a.2.2 0 0 0 .08-.16c0-.1-.05-.19-.59-.44-.42-.2-1.28-.62-1.12-1.62.09-.57.48-.87.85-1v-.33c0-.3.25-.55.55-.55.3 0 .55.25.55.55v.37c.23.1.46.27.7.51a.55.55 0 1 1-.76.8c-.34-.33-.47-.34-.56-.35-.07 0-.1 0-.17.04-.06.04-.07.09-.08.13-.01.07 0 .12.04.15.09.1.3.21.47.3.27.12.57.28.8.5.3.27.44.6.44.97a1.36 1.36 0 0 1-.88 1.27v.27c0 .3-.24.55-.55.55Zm-.08-4.18Z" fill="#FAFAFC"></path>
  </g>
  <path d="M27 21.25a.3.3 0 0 1-.22-.08.33.33 0 0 1-.06-.27L29.12.95c.01-.1.05-.18.1-.24A.36.36 0 0 1 29.5.6h3.26c.2 0 .31.12.31.36l-1.99 16.59c-.03.1 0 .14.12.14h5.85c.21 0 .32.12.32.36l-.35 2.86a.52.52 0 0 1-.14.27.3.3 0 0 1-.23.08H27Zm11.92 0a.3.3 0 0 1-.23-.08c-.06-.08-.08-.17-.06-.27L41.03.95c.01-.1.05-.18.1-.24A.35.35 0 0 1 41.4.6h3.26c.2 0 .31.12.31.36L42.58 20.9a.52.52 0 0 1-.14.27.42.42 0 0 1-.26.08h-3.26Zm9.85 0c-.21 0-.32-.1-.32-.32L46.84.98V.92c0-.22.11-.33.34-.33h3.6c.22 0 .33.11.33.33l.37 12.99c0 .07.02.11.06.11.06 0 .1-.04.11-.11L55.1.9c.05-.2.19-.32.4-.32h3.49c.23 0 .3.13.23.39l-6.43 19.95c-.06.22-.2.32-.4.32h-3.6ZM71.02 3.81a.52.52 0 0 1-.14.27.3.3 0 0 1-.23.09h-5.86c-.1 0-.14.04-.14.14l-.58 4.67c0 .1.04.14.12.14h3.37c.1 0 .17.04.23.12.06.06.08.14.06.24l-.35 2.86a.52.52 0 0 1-.14.27.3.3 0 0 1-.23.09h-3.35c-.11 0-.17.04-.17.14l-.55 4.7c-.04.1 0 .14.12.14H69c.1 0 .17.04.23.12.08.06.1.14.09.24l-.35 2.86a.52.52 0 0 1-.14.27.3.3 0 0 1-.23.08H59a.3.3 0 0 1-.23-.08c-.06-.08-.08-.17-.06-.27L61.1.95c.01-.1.05-.18.1-.24a.36.36 0 0 1 .27-.12h9.6c.1 0 .17.04.23.12.06.06.08.14.06.24l-.35 2.86Zm11.82 11.63a6.25 6.25 0 0 1-2.05 4.3 6.27 6.27 0 0 1-4.27 1.51h-5.27a.3.3 0 0 1-.24-.08c-.05-.08-.07-.17-.05-.27L73.35.95c.02-.1.06-.18.12-.24a.35.35 0 0 1 .26-.12h4.67c1.69 0 3 .4 3.92 1.18.94.77 1.41 1.92 1.41 3.46 0 .2-.02.53-.06 1-.23 1.93-1.03 3.35-2.42 4.25-.08.06-.09.12-.03.18a4.7 4.7 0 0 1 1.67 3.87 12 12 0 0 1-.05.91Zm-5.8-11.27c-.1 0-.14.04-.14.14l-.58 4.64c0 .1.04.14.12.14h1c.74 0 1.3-.26 1.7-.8.43-.52.64-1.26.64-2.2 0-.64-.15-1.1-.46-1.42-.29-.34-.71-.5-1.27-.5h-1Zm-.37 13.48c.61 0 1.12-.23 1.52-.7.4-.48.67-1.15.78-2.01.02-.14.03-.35.03-.62a2.7 2.7 0 0 0-.43-1.62c-.29-.4-.7-.6-1.21-.6h-1.27c-.08 0-.13.05-.17.15l-.6 5.26c-.05.1 0 .14.1.14h1.25ZM89.5 21.5c-1.5 0-2.7-.45-3.58-1.36a5.18 5.18 0 0 1-1.3-3.69c0-.47.03-.82.06-1.06L86.41.95c.02-.1.06-.18.12-.24a.35.35 0 0 1 .26-.12h3.26c.2 0 .31.12.31.36l-1.78 14.84c-.02.1-.03.24-.03.42 0 .5.12.92.37 1.24.25.31.59.47 1.01.47.48 0 .89-.2 1.21-.6.35-.38.56-.9.64-1.53L93.57.95c.01-.1.05-.18.11-.24a.35.35 0 0 1 .26-.12h3.29c.1 0 .17.04.23.12.06.06.07.14.06.24l-1.73 14.43a7.12 7.12 0 0 1-2.05 4.46 5.9 5.9 0 0 1-4.24 1.65Zm11.7-.26a.3.3 0 0 1-.23-.1c-.06-.07-.08-.16-.06-.26l.93-7.67v-.06a.13.13 0 0 0 0-.12L99.36 1.01V.9c0-.09.03-.17.08-.23a.3.3 0 0 1 .23-.09h3.46c.22 0 .33.1.35.3l.9 7.05c0 .06.01.1.05.1.06 0 .1-.04.12-.1L107.1.9c.08-.2.22-.3.44-.3h3.43c.11 0 .19.04.23.12.06.06.06.16 0 .3l-5.37 12.01a.33.33 0 0 0-.05.18l-.93 7.67a.51.51 0 0 1-.14.27.3.3 0 0 1-.23.09h-3.29Z" fill="currentColor"></path>
  <defs>
    <linearGradient id="paint0_linear_933_44692" x1="8.81" y1="-2.96" x2="-2.47" y2="6.14" gradientUnits="userSpaceOnUse">
      <stop stop-color="#754CF8"></stop>
      <stop offset="1" stop-color="#35EDFD"></stop>
    </linearGradient>
    <linearGradient id="paint1_linear_933_44692" x1="20.21" y1="-2.96" x2="8.93" y2="6.14" gradientUnits="userSpaceOnUse">
      <stop stop-color="#FFE973"></stop>
      <stop offset="1" stop-color="#FF72BE"></stop>
    </linearGradient>
    <linearGradient id="paint2_linear_933_44692" x1="8.81" y1="8.44" x2="-2.47" y2="17.53" gradientUnits="userSpaceOnUse">
      <stop stop-color="#F250F9"></stop>
      <stop offset="1" stop-color="#6557F6"></stop>
    </linearGradient>
    <linearGradient id="paint3_linear_933_44692" x1="20.21" y1="8.44" x2="8.93" y2="17.53" gradientUnits="userSpaceOnUse">
      <stop stop-color="#FF6669"></stop>
      <stop offset="1" stop-color="#F859E6"></stop>
    </linearGradient>
    <clipPath id="clip0_933_44692">
      <path fill="#fff" d="M.12.6h20.9v20.9H.12z"></path>
    </clipPath>
  </defs>
</svg>