<?xml version="1.0" encoding="utf-8"?>
<svg version="1.1" id="Layer_1" xmlns="http://www.w3.org/2000/svg" xmlns:xlink="http://www.w3.org/1999/xlink" x="0px" y="0px"
	 viewBox="0 0 1200 217.7" style="enable-background:new 0 0 1200 217.7;" xml:space="preserve">
<style type="text/css">
	.st0{fill:#354054;}
	.st1{fill:url(#SVGID_1_);}
	.st2{fill:#E6E7E8;}
	.st3{fill:#207860;}
</style>
<g>
	<g>
		<g>
			<g>
				<g>
					<path class="st0" d="M299.69,61.03c16.58-3.45,28-4.74,40.28-4.74c36.62,0,57.09,18.74,57.09,52.34
						c0,33.83-21.97,55.58-56.23,55.58c-5.38,0-10.12-0.43-15.5-1.5v54.28h-25.63V61.03z M325.33,142.03
						c5.17,1.08,8.18,1.5,12.49,1.5c20.9,0,32.96-12.27,32.96-34.03c0-20.9-11.2-32.53-31.24-32.53c-4.95,0-8.39,0.43-14.21,2.15
						V142.03z"/>
				</g>
			</g>
			<g>
				<g>
					<path class="st0" d="M423.74,1.57h25.63v161.57h-25.63V1.57z"/>
				</g>
			</g>
			<g>
				<g>
					<path class="st0" d="M483.41,66.85c14-7.55,26.28-10.78,40.5-10.78c15.29,0,25.2,4.53,29.73,13.36
						c2.59,4.95,3.44,11.2,3.44,24.99v66.56c-18.09,2.59-32.52,3.88-44.37,3.88c-24.56,0-35.55-9.05-35.55-29.73
						c0-14.22,6.04-24.34,18.1-30.16c9.26-4.53,17.88-6.46,35.98-8.4l2.15-0.21v-3.88c0-11.64-3.66-15.73-15.08-15.73
						c-11.41,0-22.19,3.88-34.9,12.06V66.85z M533.82,115.53c-24.78,1.94-33.39,6.68-33.39,18.09c0,8.19,4.53,11.85,14,11.85
						c5.61,0,12.07-0.65,19.39-1.94V115.53z"/>
				</g>
			</g>
			<g>
				<g>
					<path class="st0" d="M575.37,60.81h17.67v-28h24.55v28h23.27v19.18h-23.27v46.1c0,14.65,3.02,18.52,14.01,18.52
						c2.36,0,3.88-0.21,7.11-1.29v19.17c-5.39,1.08-9.91,1.52-15.08,1.52c-12.93,0-21.77-3.23-26.72-9.7
						c-4.09-5.17-4.96-9.48-4.96-25.42v-48.9h-16.58V60.81z"/>
				</g>
			</g>
			<g>
				<g>
					<path class="st0" d="M652.05,60.6h16.58v-3.44c0-23.05,3.88-35.54,14.22-45.03c8.18-7.32,19.59-11.41,32.52-11.41
						c3.88,0,6.25,0.21,10.77,1.07v20.47c-3.44-0.65-5.38-0.87-7.97-0.87c-8.18,0-14.65,2.81-18.52,7.97
						c-4.09,5.17-5.38,12.28-5.38,27.8v3.44h25.85v19.17h-25.85v83.37h-25.64V79.77h-16.58V60.6z"/>
				</g>
			</g>
			<g>
				<g>
					<path class="st0" d="M782.58,55.86c31.68,0,51.06,20.68,51.06,54.07c0,34.47-20.25,56.02-52.35,56.02
						c-31.44,0-51.05-20.69-51.05-54.08C730.24,77.4,750.49,55.86,782.58,55.86z M781.93,145.26c16.16,0,25.42-12.49,25.42-34.46
						c0-21.98-9.26-34.26-25.42-34.26c-16.15,0-25.41,12.28-25.41,34.26C756.52,132.76,765.78,145.26,781.93,145.26z"/>
				</g>
			</g>
			<g>
				<g>
					<path class="st0" d="M860.11,65.33c14.22-5.82,30.37-9.04,45.03-9.04c7.76,0,13.56,0.86,20.46,3.01v21.54
						c-5.82-1.73-11.2-2.37-17.88-2.37c-7.76,0-14.66,1.08-21.98,3.45v81.21h-25.64V65.33z"/>
				</g>
			</g>
			<g>
				<g>
					<path class="st0" d="M943.04,63.39c16.58-4.95,31.02-7.1,45.67-7.1c12.49,0,20.46,1.93,29.73,7.32
						c12.49-5.17,23.05-7.32,35.33-7.32c14.21,0,25.2,3.66,31.88,10.55c6.04,6.45,8.19,14.21,8.19,28.43v67.85h-25.64V97.01
						c0-14.22-5.38-20.04-18.75-20.04c-6.46,0-11.63,1.08-18.52,3.67c1.29,4.09,1.73,7.53,1.73,15.08v67.42h-25.63V97.22
						c0-14.43-5.61-20.25-20.04-20.25c-6.24,0-11.2,0.86-18.31,3.02v83.15h-25.63V63.39z"/>
				</g>
			</g>
			<g>
				<g>
					<path class="st0" d="M1126.33,66.85c14-7.55,26.28-10.78,40.5-10.78c15.29,0,25.2,4.53,29.73,13.36
						c2.59,4.95,3.44,11.2,3.44,24.99v66.56c-18.09,2.59-32.52,3.88-44.37,3.88c-24.56,0-35.55-9.05-35.55-29.73
						c0-14.22,6.04-24.34,18.1-30.16c9.26-4.53,17.88-6.46,35.98-8.4l2.15-0.21v-3.88c0-11.64-3.66-15.73-15.08-15.73
						c-11.41,0-22.19,3.88-34.9,12.06V66.85z M1176.74,115.53c-24.78,1.94-33.39,6.68-33.39,18.09c0,8.19,4.53,11.85,14,11.85
						c5.61,0,12.07-0.65,19.39-1.94V115.53z"/>
				</g>
			</g>
		</g>
	</g>
	<g>
		<linearGradient id="SVGID_1_" gradientUnits="userSpaceOnUse" x1="121.8114" y1="48.8266" x2="157.1475" y2="124.7992">
			<stop  offset="0" style="stop-color:#02CB9D"/>
			<stop  offset="0.3188" style="stop-color:#03C89B"/>
			<stop  offset="0.5153" style="stop-color:#06C095"/>
			<stop  offset="0.6786" style="stop-color:#0BB18A"/>
			<stop  offset="0.8237" style="stop-color:#139D7B"/>
			<stop  offset="0.9556" style="stop-color:#1C8368"/>
			<stop  offset="1" style="stop-color:#207860"/>
		</linearGradient>
		<path class="st1" d="M250.32,65.79L117.63,0L0,58.27l54.23,26.87L54.51,85l78.3,38.6c7.99,4.01,13.03,12.18,13.03,21.11
			c0,9.78-5.77,17.74-13.59,21.51l116.7-57.83c8.22-4.07,14.26-11.65,14.26-21.72C263.22,77.84,258.23,69.75,250.32,65.79z"/>
		<path class="st2" d="M132.81,123.6l-64.91-32L8.68,120.9l0.01,0.01c3.5-1.7,7.74-1.91,11.69,0.04l88.07,43.64l-0.18,0.09
			l3.26,1.43c15.71,7.87,34.31-3.82,34.31-21.39v0C145.84,135.78,140.8,127.6,132.81,123.6z"/>
		<g>
			<path class="st3" d="M1.19,111.43"/>
			<path class="st3" d="M1.19,132.86v84.84l107.26-53.12l-88.07-43.64C11.55,116.57,1.19,123,1.19,132.86z"/>
		</g>
	</g>
</g>
</svg>
