<?xml version="1.0" encoding="utf-8"?>
<!-- Generator: Adobe Illustrator 19.0.0, SVG Export Plug-In . SVG Version: 6.00 Build 0)  -->
<svg version="1.1" id="Layer_1" xmlns="http://www.w3.org/2000/svg" xmlns:xlink="http://www.w3.org/1999/xlink" x="0px" y="0px"
	 viewBox="0 0 304 97.4" style="enable-background:new 0 0 304 97.4;" xml:space="preserve">
<style type="text/css">
	.st0{fill:#FFFFFF;}
	.st1{fill:#2BAA4A;}
</style>
<g id="XMLID_2_">
	<g id="XMLID_28_">
		<path id="XMLID_66_" d="M61.9,72c-1.5,0-3.1-0.7-4.1-2L47.8,55.9L41,61.4c-2.2,1.8-5.6,1.3-7.4-0.9c-1.8-2.2-1.9-5.9,0.3-7.7
			l14.9-12.2l17.1,23.2c1.7,2.2,1.3,5.5-0.9,7.2C64.1,71.7,63,72,61.9,72z"/>
	</g>
	<g id="XMLID_6_">
		<g id="XMLID_9_">
			<g id="XMLID_26_">
				<line id="XMLID_104_" class="st0" x1="54.2" y1="40.5" x2="58.3" y2="46"/>
			</g>
		</g>
		<g id="XMLID_7_">
			<g id="XMLID_15_">
				<path id="XMLID_101_" class="st1" d="M70.7,33.8c-0.8-0.2-1.7-0.1-2.4,0.4l-9.5,8l-2.5-3.4c-0.9-1.2-2.6-1.4-3.8-0.6
					c-1.2,0.9-1.4,2.6-0.6,3.8l5.7,7.7l13.8-11.2c1.2-0.9,1.4-2.6,0.6-3.8C71.7,34.3,71.2,34,70.7,33.8z"/>
			</g>
			<g id="XMLID_20_">
				<path id="XMLID_97_" class="st1" d="M57.6,50.4l-6-8c-1-1.4-0.7-3.4,0.7-4.4c0.7-0.5,1.5-0.7,2.3-0.6c0.8,0.1,1.6,0.6,2.1,1.2
					l2.2,3l9.1-7.7c0.8-0.6,1.8-0.8,2.8-0.5c0.7,0.2,1.2,0.6,1.6,1.1c0.5,0.7,0.7,1.5,0.6,2.3c-0.1,0.8-0.6,1.6-1.2,2.1L57.6,50.4z
					 M54.2,38.2c-0.5,0-1,0.1-1.4,0.4c-1,0.7-1.2,2.1-0.5,3.1l5.4,7.3l13.4-10.9c1-0.7,1.2-2.1,0.5-3.1c-0.3-0.4-0.7-0.7-1.2-0.8
					l0,0c-0.7-0.2-1.4-0.1-2,0.3l-9.8,8.2L56,39.1c-0.4-0.5-0.9-0.8-1.5-0.9C54.4,38.2,54.3,38.2,54.2,38.2z"/>
			</g>
		</g>
	</g>
	<path id="XMLID_5_" d="M82.8,42.7c-0.6-2.2-2.9-3.6-5.1-3c-2.2,0.6-3.6,2.9-3,5.1c1.8,7.1,0.9,14.5-2.7,20.8
		c-3.7,6.5-9.7,11.1-16.8,13.1c-7.2,2-14.7,1-21.2-2.6c-13.4-7.6-18.1-24.7-10.5-38c6.5-11.4,19.9-16.5,32-13l-0.2,0.2
		c-1.1,1-1.5,2.6-0.8,4c0.5,1.1,1.6,1.8,2.7,1.9c0.3,0,0.6,0,0.9,0l10.8-1.8c1.2-0.2,2.2-1,2.6-2.1c0.4-1.1,0.3-2.4-0.4-3.3
		l-6.9-9.3c-1-1.3-2.7-1.7-4.2-1.1c-1.3,0.6-2.1,2-1.9,3.4C42.2,12.4,24.7,19,16.2,34c-9.9,17.4-3.8,39.6,13.6,49.4
		c4.3,2.4,8.9,3.9,13.6,4.5c4.6,0.6,9.3,0.2,14-1.1c9.3-2.6,17.1-8.6,21.9-17C83.9,61.5,85.2,51.9,82.8,42.7z"/>
	<g id="XMLID_67_">
		<path id="XMLID_43_" d="M102.4,67.4v-26H93v-7.2h27.4v7.2h-9.5v26H102.4z"/>
		<path id="XMLID_47_" d="M128.2,43.1c3,0,5.6,0.8,7.6,2.5c2,1.6,3,3.8,3,6.5v15.4h-7.8v-2.9c-0.3,1-1,1.8-2.1,2.4
			c-1.1,0.6-2.4,0.9-4,0.9c-2.2,0-4-0.7-5.5-2.1c-1.4-1.4-2.2-3.1-2.2-5.1c0-2.3,0.8-4.1,2.3-5.5c1.5-1.4,3.6-2,6.1-2h3.4
			c0.6,0,1.1-0.2,1.4-0.5c0.3-0.4,0.5-0.8,0.5-1.4c0-0.7-0.3-1.3-0.9-1.8c-0.6-0.4-1.4-0.7-2.4-0.7c-1.2,0-2.1,0.3-2.7,0.9
			c-0.6,0.6-0.9,1.4-0.9,2.4h-6.8c0.1-2.6,1.1-4.7,3-6.4C122.2,43.9,124.8,43.1,128.2,43.1z M131.1,58v-0.2h-4
			c-0.7,0-1.3,0.2-1.7,0.7c-0.4,0.5-0.7,1-0.7,1.7c0,0.6,0.2,1.1,0.7,1.5c0.5,0.4,1,0.6,1.7,0.6c1.2,0,2.2-0.4,2.9-1.3
			C130.7,60.2,131.1,59.2,131.1,58z"/>
		<path id="XMLID_50_" d="M151.8,67.8c-3,0-5.4-0.8-7.3-2.3c-1.9-1.6-2.9-3.6-3-6.2h6.6c0.1,0.9,0.5,1.5,1.2,2.1
			c0.7,0.5,1.5,0.8,2.5,0.8c0.8,0,1.5-0.2,2-0.5s0.8-0.7,0.8-1.2c0-0.6-0.3-1.1-0.9-1.4c-0.6-0.3-1.4-0.6-2.3-0.7
			c-0.9-0.1-1.9-0.3-3-0.6c-1.1-0.3-2-0.6-3-1c-0.9-0.4-1.7-1.2-2.3-2.2c-0.6-1-0.9-2.3-0.9-3.9c0-2.2,0.8-3.9,2.5-5.3
			c1.7-1.4,3.7-2.1,6.1-2.1c3,0,5.4,0.7,7.3,2.2c1.9,1.5,2.8,3.4,2.9,5.8h-6.6c-0.1-0.8-0.5-1.4-1.1-2c-0.6-0.5-1.3-0.8-2.1-0.8
			c-1.6,0-2.5,0.6-2.5,1.9c0,0.8,0.4,1.3,1.3,1.6c0.9,0.3,1.9,0.5,3.2,0.6c1.2,0.1,2.5,0.3,3.7,0.7c1.2,0.3,2.3,1,3.2,2.2
			c0.9,1.1,1.3,2.7,1.3,4.7c0,2.3-0.9,4.2-2.6,5.6C156.9,67.1,154.6,67.8,151.8,67.8z"/>
		<path id="XMLID_52_" d="M180.8,67.4l-5.7-9.3l-2.5,2.5v6.7h-7.9V32.8h7.9v17.9l7-7.3h9.8l-9.3,9.4l9.9,14.5H180.8z"/>
		<path id="XMLID_54_" d="M195.4,36.7h7.8v6.8h6v6.5h-6v7.9c0,2.1,1,3.1,3.1,3.1h2.9v6.5h-4.1c-3,0-5.4-0.8-7.1-2.4
			c-1.8-1.6-2.6-3.9-2.6-6.8v-8.3H191v-6.5h4.4V36.7z"/>
		<path id="XMLID_56_" d="M212.4,32.8h8.2v7.7h-8.2V32.8z M212.6,67.4V43.5h7.8v23.9H212.6z"/>
		<path id="XMLID_59_" d="M225.1,67.4V32.8h7.8v34.5H225.1z"/>
		<path id="XMLID_61_" d="M237.5,32.8h8.2v7.7h-8.2V32.8z M237.6,67.4V43.5h7.8v23.9H237.6z"/>
		<path id="XMLID_64_" d="M253,36.7h7.8v6.8h6v6.5h-6v7.9c0,2.1,1,3.1,3.1,3.1h2.9v6.5h-4.1c-3,0-5.4-0.8-7.1-2.4
			c-1.8-1.6-2.6-3.9-2.6-6.8v-8.3h-4.4v-6.5h4.4V36.7z"/>
		<path id="XMLID_68_" d="M292.6,43.5l-8.6,23.7l-3.5,9.9H273l3.7-10.2l-8.6-23.4h7.9l4.3,13.9l4.2-13.9H292.6z"/>
	</g>
</g>
<g id="XMLID_146_">
	<g id="XMLID_183_">
		<path id="XMLID_184_" class="st0" d="M61.9,224.7c-1.5,0-3.1-0.7-4.1-2l-10.1-14.2L41,214c-2.2,1.8-5.6,1.3-7.4-0.9
			c-1.8-2.2-1.9-5.9,0.3-7.7l14.9-12.2l17.1,23.2c1.7,2.2,1.3,5.5-0.9,7.2C64.1,224.3,63,224.7,61.9,224.7z"/>
	</g>
	<g id="XMLID_172_">
		<g id="XMLID_180_">
			<g id="XMLID_181_">
				<line id="XMLID_182_" class="st0" x1="54.2" y1="193.1" x2="58.3" y2="198.6"/>
			</g>
		</g>
		<g id="XMLID_173_">
			<g id="XMLID_178_">
				<path id="XMLID_179_" class="st1" d="M70.7,186.5c-0.8-0.2-1.7-0.1-2.4,0.4l-9.5,8l-2.5-3.4c-0.9-1.2-2.6-1.4-3.8-0.6
					c-1.2,0.9-1.4,2.6-0.6,3.8l5.7,7.7l13.8-11.2c1.2-0.9,1.4-2.6,0.6-3.8C71.7,187,71.2,186.6,70.7,186.5z"/>
			</g>
			<g id="XMLID_174_">
				<path id="XMLID_175_" class="st1" d="M57.6,203l-6-8c-1-1.4-0.7-3.4,0.7-4.4c0.7-0.5,1.5-0.7,2.3-0.6c0.8,0.1,1.6,0.6,2.1,1.2
					l2.2,3l9.1-7.7c0.8-0.6,1.8-0.8,2.8-0.5c0.7,0.2,1.2,0.6,1.6,1.1c0.5,0.7,0.7,1.5,0.6,2.3c-0.1,0.8-0.6,1.6-1.2,2.1L57.6,203z
					 M54.2,190.9c-0.5,0-1,0.1-1.4,0.4c-1,0.7-1.2,2.1-0.5,3.1l5.4,7.3l13.4-10.9c1-0.7,1.2-2.1,0.5-3.1c-0.3-0.4-0.7-0.7-1.2-0.8
					l0,0c-0.7-0.2-1.4-0.1-2,0.3l-9.8,8.2l-2.8-3.7c-0.4-0.5-0.9-0.8-1.5-0.9C54.4,190.9,54.3,190.9,54.2,190.9z"/>
			</g>
		</g>
	</g>
	<path id="XMLID_171_" class="st0" d="M82.8,195.4c-0.6-2.2-2.9-3.6-5.1-3c-2.2,0.6-3.6,2.9-3,5.1c1.8,7.1,0.9,14.5-2.7,20.8
		c-3.7,6.5-9.7,11.1-16.8,13.1c-7.2,2-14.7,1-21.2-2.6c-13.4-7.6-18.1-24.7-10.5-38c6.5-11.4,19.9-16.5,32-13l-0.2,0.2
		c-1.1,1-1.5,2.6-0.8,4c0.5,1.1,1.6,1.8,2.7,1.9c0.3,0,0.6,0,0.9,0l10.8-1.8c1.2-0.2,2.2-1,2.6-2.1c0.4-1.1,0.3-2.4-0.4-3.3
		l-6.9-9.3c-1-1.3-2.7-1.7-4.2-1.1c-1.3,0.6-2.1,2-1.9,3.4c-15.8-4.7-33.4,1.9-41.8,16.8C6.3,204,12.4,226.2,29.8,236
		c4.3,2.4,8.9,3.9,13.6,4.5c4.6,0.6,9.3,0.2,14-1.1c9.3-2.6,17.1-8.6,21.9-17C83.9,214.2,85.2,204.6,82.8,195.4z"/>
	<g id="XMLID_147_">
		<path id="XMLID_169_" class="st0" d="M102.4,220v-26H93v-7.2h27.4v7.2h-9.5v26H102.4z"/>
		<path id="XMLID_166_" class="st0" d="M128.2,195.7c3,0,5.6,0.8,7.6,2.5c2,1.6,3,3.8,3,6.5V220h-7.8v-2.9c-0.3,1-1,1.8-2.1,2.4
			c-1.1,0.6-2.4,0.9-4,0.9c-2.2,0-4-0.7-5.5-2.1c-1.4-1.4-2.2-3.1-2.2-5.1c0-2.3,0.8-4.1,2.3-5.5c1.5-1.4,3.6-2,6.1-2h3.4
			c0.6,0,1.1-0.2,1.4-0.5c0.3-0.4,0.5-0.8,0.5-1.4c0-0.7-0.3-1.3-0.9-1.8c-0.6-0.4-1.4-0.7-2.4-0.7c-1.2,0-2.1,0.3-2.7,0.9
			c-0.6,0.6-0.9,1.4-0.9,2.4h-6.8c0.1-2.6,1.1-4.7,3-6.4C122.2,196.6,124.8,195.7,128.2,195.7z M131.1,210.6v-0.2h-4
			c-0.7,0-1.3,0.2-1.7,0.7c-0.4,0.5-0.7,1-0.7,1.7c0,0.6,0.2,1.1,0.7,1.5c0.5,0.4,1,0.6,1.7,0.6c1.2,0,2.2-0.4,2.9-1.3
			C130.7,212.8,131.1,211.8,131.1,210.6z"/>
		<path id="XMLID_164_" class="st0" d="M151.8,220.4c-3,0-5.4-0.8-7.3-2.3c-1.9-1.6-2.9-3.6-3-6.2h6.6c0.1,0.9,0.5,1.5,1.2,2.1
			c0.7,0.5,1.5,0.8,2.5,0.8c0.8,0,1.5-0.2,2-0.5s0.8-0.7,0.8-1.2c0-0.6-0.3-1.1-0.9-1.4c-0.6-0.3-1.4-0.6-2.3-0.7
			c-0.9-0.1-1.9-0.3-3-0.6c-1.1-0.3-2-0.6-3-1c-0.9-0.4-1.7-1.2-2.3-2.2c-0.6-1-0.9-2.3-0.9-3.9c0-2.2,0.8-3.9,2.5-5.3
			c1.7-1.4,3.7-2.1,6.1-2.1c3,0,5.4,0.7,7.3,2.2c1.9,1.5,2.8,3.4,2.9,5.8h-6.6c-0.1-0.8-0.5-1.4-1.1-2c-0.6-0.5-1.3-0.8-2.1-0.8
			c-1.6,0-2.5,0.6-2.5,1.9c0,0.8,0.4,1.3,1.3,1.6c0.9,0.3,1.9,0.5,3.2,0.6c1.2,0.1,2.5,0.3,3.7,0.7c1.2,0.3,2.3,1,3.2,2.2
			c0.9,1.1,1.3,2.7,1.3,4.7c0,2.3-0.9,4.2-2.6,5.6C156.9,219.7,154.6,220.4,151.8,220.4z"/>
		<path id="XMLID_162_" class="st0" d="M180.8,220l-5.7-9.3l-2.5,2.5v6.7h-7.9v-34.5h7.9v17.9l7-7.3h9.8l-9.3,9.4l9.9,14.5H180.8z"
			/>
		<path id="XMLID_160_" class="st0" d="M195.4,189.3h7.8v6.8h6v6.5h-6v7.9c0,2.1,1,3.1,3.1,3.1h2.9v6.5h-4.1c-3,0-5.4-0.8-7.1-2.4
			c-1.8-1.6-2.6-3.9-2.6-6.8v-8.3H191v-6.5h4.4V189.3z"/>
		<path id="XMLID_157_" class="st0" d="M212.4,185.5h8.2v7.7h-8.2V185.5z M212.6,220v-23.9h7.8V220H212.6z"/>
		<path id="XMLID_155_" class="st0" d="M225.1,220v-34.5h7.8V220H225.1z"/>
		<path id="XMLID_152_" class="st0" d="M237.5,185.5h8.2v7.7h-8.2V185.5z M237.6,220v-23.9h7.8V220H237.6z"/>
		<path id="XMLID_150_" class="st0" d="M253,189.3h7.8v6.8h6v6.5h-6v7.9c0,2.1,1,3.1,3.1,3.1h2.9v6.5h-4.1c-3,0-5.4-0.8-7.1-2.4
			c-1.8-1.6-2.6-3.9-2.6-6.8v-8.3h-4.4v-6.5h4.4V189.3z"/>
		<path id="XMLID_148_" class="st0" d="M292.6,196.1l-8.6,23.7l-3.5,9.9H273l3.7-10.2l-8.6-23.4h7.9l4.3,13.9l4.2-13.9H292.6z"/>
	</g>
</g>
<g id="XMLID_328_">
	<g id="XMLID_313_">
		<path id="XMLID_314_" d="M-117.8,73.3c-1.5,0-3.1-0.7-4.1-2l-10.1-14.2l-6.7,5.5c-2.2,1.8-5.6,1.3-7.4-0.9
			c-1.8-2.2-1.9-5.9,0.3-7.7l14.9-12.2l17.1,23.2c1.7,2.2,1.3,5.5-0.9,7.2C-115.6,72.9-116.7,73.3-117.8,73.3z"/>
	</g>
	<g id="XMLID_302_">
		<g id="XMLID_310_">
			<g id="XMLID_311_">
				<line id="XMLID_312_" class="st0" x1="-125.5" y1="41.7" x2="-121.4" y2="47.2"/>
			</g>
		</g>
		<g id="XMLID_303_">
			<g id="XMLID_308_">
				<path id="XMLID_309_" class="st1" d="M-109,35.1c-0.8-0.2-1.7-0.1-2.4,0.4l-9.5,8l-2.5-3.4c-0.9-1.2-2.6-1.4-3.8-0.6
					s-1.4,2.6-0.6,3.8l5.7,7.7l13.8-11.2c1.2-0.9,1.4-2.6,0.6-3.8C-108,35.6-108.5,35.2-109,35.1z"/>
			</g>
			<g id="XMLID_304_">
				<path id="XMLID_305_" class="st1" d="M-122.1,51.6l-6-8c-1-1.4-0.7-3.4,0.7-4.4c0.7-0.5,1.5-0.7,2.3-0.6
					c0.8,0.1,1.6,0.6,2.1,1.2l2.2,3l9.1-7.7c0.8-0.6,1.8-0.8,2.8-0.5c0.7,0.2,1.2,0.6,1.6,1.1c0.5,0.7,0.7,1.5,0.6,2.3
					c-0.1,0.8-0.6,1.6-1.2,2.1L-122.1,51.6z M-125.5,39.5c-0.5,0-1,0.1-1.4,0.4c-1,0.7-1.2,2.1-0.5,3.1l5.4,7.3l13.4-10.9
					c1-0.7,1.2-2.1,0.5-3.1c-0.3-0.4-0.7-0.7-1.2-0.8l0,0c-0.7-0.2-1.4-0.1-2,0.3l-9.8,8.2l-2.8-3.7c-0.4-0.5-0.9-0.8-1.5-0.9
					C-125.3,39.5-125.4,39.5-125.5,39.5z"/>
			</g>
		</g>
	</g>
	<path id="XMLID_301_" d="M-96.9,44c-0.6-2.2-2.9-3.6-5.1-3c-2.2,0.6-3.6,2.9-3,5.1c1.8,7.1,0.9,14.5-2.7,20.8
		c-3.7,6.5-9.7,11.1-16.8,13.1c-7.2,2-14.7,1-21.2-2.6c-13.4-7.6-18.1-24.7-10.5-38c6.5-11.4,19.9-16.5,32-13l-0.2,0.2
		c-1.1,1-1.5,2.6-0.8,4c0.5,1.1,1.6,1.8,2.7,1.9c0.3,0,0.6,0,0.9,0l10.8-1.8c1.2-0.2,2.2-1,2.6-2.1c0.4-1.1,0.3-2.4-0.4-3.3
		l-6.9-9.3c-1-1.3-2.7-1.7-4.2-1.1c-1.3,0.6-2.1,2-1.9,3.4c-15.8-4.7-33.4,1.9-41.8,16.8c-9.9,17.4-3.8,39.6,13.6,49.4
		c4.3,2.4,8.9,3.9,13.6,4.5c4.6,0.6,9.3,0.2,14-1.1c9.3-2.6,17.1-8.6,21.9-17C-95.8,62.8-94.5,53.2-96.9,44z"/>
</g>
<g id="XMLID_420_">
	<path id="XMLID_421_" class="st0" d="M-117.8,222.6c-1.5,0-3.1-0.7-4.1-2l-10.1-14.2l-6.7,5.5c-2.2,1.8-5.6,1.3-7.4-0.9
		c-1.8-2.2-1.9-5.9,0.3-7.7l14.9-12.2l17.1,23.2c1.7,2.2,1.3,5.5-0.9,7.2C-115.6,222.3-116.7,222.6-117.8,222.6z"/>
</g>
<g id="XMLID_409_">
	<g id="XMLID_417_">
		<g id="XMLID_418_">
			<line id="XMLID_419_" class="st0" x1="-125.5" y1="191" x2="-121.4" y2="196.6"/>
		</g>
	</g>
	<g id="XMLID_410_">
		<g id="XMLID_415_">
			<path id="XMLID_416_" class="st1" d="M-109,184.4c-0.8-0.2-1.7-0.1-2.4,0.4l-9.5,8l-2.5-3.4c-0.9-1.2-2.6-1.4-3.8-0.6
				c-1.2,0.9-1.4,2.6-0.6,3.8l5.7,7.7l13.8-11.2c1.2-0.9,1.4-2.6,0.6-3.8C-108,184.9-108.5,184.6-109,184.4z"/>
		</g>
		<g id="XMLID_411_">
			<path id="XMLID_412_" class="st1" d="M-122.1,201l-6-8c-1-1.4-0.7-3.4,0.7-4.4c0.7-0.5,1.5-0.7,2.3-0.6c0.8,0.1,1.6,0.6,2.1,1.2
				l2.2,3l9.1-7.7c0.8-0.6,1.8-0.8,2.8-0.5c0.7,0.2,1.2,0.6,1.6,1.1c0.5,0.7,0.7,1.5,0.6,2.3c-0.1,0.8-0.6,1.6-1.2,2.1L-122.1,201z
				 M-125.5,188.8c-0.5,0-1,0.1-1.4,0.4c-1,0.7-1.2,2.1-0.5,3.1l5.4,7.3l13.4-10.9c1-0.7,1.2-2.1,0.5-3.1c-0.3-0.4-0.7-0.7-1.2-0.8
				l0,0c-0.7-0.2-1.4-0.1-2,0.3l-9.8,8.2l-2.8-3.7c-0.4-0.5-0.9-0.8-1.5-0.9C-125.3,188.8-125.4,188.8-125.5,188.8z"/>
		</g>
	</g>
</g>
<path id="XMLID_408_" class="st0" d="M-96.9,193.3c-0.6-2.2-2.9-3.6-5.1-3c-2.2,0.6-3.6,2.9-3,5.1c1.8,7.1,0.9,14.5-2.7,20.8
	c-3.7,6.5-9.7,11.1-16.8,13.1c-7.2,2-14.7,1-21.2-2.6c-13.4-7.6-18.1-24.7-10.5-38c6.5-11.4,19.9-16.5,32-13l-0.2,0.2
	c-1.1,1-1.5,2.6-0.8,4c0.5,1.1,1.6,1.8,2.7,1.9c0.3,0,0.6,0,0.9,0l10.8-1.8c1.2-0.2,2.2-1,2.6-2.1c0.4-1.1,0.3-2.4-0.4-3.3l-6.9-9.3
	c-1-1.3-2.7-1.7-4.2-1.1c-1.3,0.6-2.1,2-1.9,3.4c-15.8-4.7-33.4,1.9-41.8,16.8c-9.9,17.4-3.8,39.6,13.6,49.4
	c4.3,2.4,8.9,3.9,13.6,4.5c4.6,0.6,9.3,0.2,14-1.1c9.3-2.6,17.1-8.6,21.9-17C-95.8,212.1-94.5,202.5-96.9,193.3z"/>
</svg>
